<svg width="444" height="185" viewBox="0 0 444 185" fill="none" xmlns="http://www.w3.org/2000/svg">
<path d="M419.779 0H24.2213C10.8443 0 0 10.8451 0 24.2231V160.155C0 173.533 10.8443 184.378 24.2213 184.378H419.779C433.156 184.378 444 173.533 444 160.155V24.2231C444 10.8451 433.156 0 419.779 0Z" fill="#3C3C3B"/>
<path d="M352.744 85.4596C354.413 87.1523 355.348 89.434 355.348 91.8112C355.348 94.1885 354.413 96.4702 352.744 98.1629L330.441 121.015C330.159 121.303 329.821 121.532 329.45 121.688C329.078 121.844 328.678 121.925 328.275 121.925C327.883 121.929 327.494 121.854 327.132 121.703C326.77 121.553 326.442 121.33 326.169 121.049C325.886 120.774 325.66 120.446 325.504 120.084C325.348 119.722 325.265 119.333 325.26 118.938C325.254 118.544 325.326 118.153 325.472 117.786C325.618 117.42 325.834 117.086 326.109 116.803L348.412 93.9641C348.697 93.6857 348.924 93.353 349.079 92.9855C349.234 92.6181 349.313 92.2234 349.313 91.8246C349.313 91.4259 349.234 91.0311 349.079 90.6637C348.924 90.2963 348.697 89.9635 348.412 89.6851L326.109 66.8593C325.554 66.2884 325.248 65.5203 325.26 64.7241C325.271 63.9279 325.598 63.1688 326.169 62.6138C326.74 62.0588 327.508 61.7533 328.304 61.7646C329.1 61.7759 329.859 62.103 330.414 62.674L352.717 85.5198L352.744 85.4596ZM394.488 115.887H358.386C357.623 115.938 356.908 116.277 356.385 116.836C355.862 117.395 355.572 118.131 355.572 118.896C355.572 119.661 355.862 120.397 356.385 120.956C356.908 121.515 357.623 121.854 358.386 121.905H394.488C395.251 121.854 395.966 121.515 396.489 120.956C397.011 120.397 397.302 119.661 397.302 118.896C397.302 118.131 397.011 117.395 396.489 116.836C395.966 116.277 395.251 115.938 394.488 115.887Z" fill="#95C11F"/>
<path d="M255.564 102.335C255.57 97.5353 253.911 92.8823 250.869 89.1701C247.827 85.4579 243.591 82.9166 238.884 81.98C234.177 81.0433 229.291 81.7694 225.06 84.0342C220.828 86.299 217.514 89.9622 215.683 94.3986C213.851 98.8349 213.616 103.769 215.018 108.36C216.419 112.95 219.37 116.912 223.367 119.569C227.364 122.226 232.158 123.413 236.933 122.928C241.708 122.443 246.166 120.316 249.547 116.91V120.032C249.547 120.83 249.864 121.596 250.428 122.16C250.993 122.724 251.758 123.041 252.556 123.041C253.354 123.041 254.119 122.724 254.683 122.16C255.247 121.596 255.564 120.83 255.564 120.032V102.689C255.564 102.689 255.564 102.642 255.564 102.616C255.564 102.589 255.564 102.428 255.564 102.335ZM234.839 117.044C231.93 117.044 229.087 116.181 226.668 114.565C224.249 112.949 222.364 110.651 221.251 107.964C220.138 105.276 219.846 102.318 220.414 99.4652C220.982 96.6119 222.382 93.991 224.439 91.934C226.496 89.8769 229.117 88.476 231.97 87.9084C234.823 87.3409 237.78 87.6321 240.468 88.7454C243.155 89.8587 245.452 91.744 247.069 94.1629C248.685 96.5818 249.547 99.4256 249.547 102.335C249.537 106.225 247.985 109.953 245.232 112.703C242.48 115.452 238.75 116.998 234.859 117.004L234.839 117.044Z" fill="#DADADA"/>
<path d="M286.504 81.6218C283.769 81.619 281.06 82.1596 278.536 83.212C276.011 84.2645 273.72 85.808 271.796 87.7528V63.6099C271.796 62.812 271.479 62.0467 270.915 61.4825C270.351 60.9182 269.586 60.6013 268.788 60.6013C267.99 60.6013 267.225 60.9182 266.661 61.4825C266.097 62.0467 265.78 62.812 265.78 63.6099V101.98C265.78 101.98 265.78 102.027 265.78 102.054C265.78 102.081 265.78 102.241 265.78 102.335C265.78 106.434 266.995 110.441 269.272 113.85C271.55 117.258 274.786 119.915 278.573 121.484C282.36 123.052 286.527 123.463 290.548 122.663C294.568 121.863 298.261 119.889 301.159 116.991C304.058 114.092 306.031 110.399 306.831 106.378C307.631 102.358 307.22 98.1904 305.652 94.4032C304.083 90.6159 301.427 87.3789 298.019 85.1015C294.61 82.824 290.603 81.6084 286.504 81.6084V81.6218ZM286.504 117.057C283.595 117.057 280.752 116.195 278.333 114.578C275.914 112.962 274.029 110.665 272.916 107.977C271.803 105.289 271.512 102.332 272.079 99.4786C272.647 96.6253 274.047 94.0044 276.104 91.9473C278.161 89.8902 280.782 88.4893 283.635 87.9218C286.488 87.3542 289.445 87.6455 292.133 88.7588C294.82 89.8721 297.118 91.7574 298.734 94.1763C300.35 96.5952 301.212 99.439 301.212 102.348C301.198 106.24 299.642 109.968 296.886 112.715C294.129 115.461 290.396 117.004 286.504 117.004V117.057Z" fill="#DADADA"/>
<path d="M208.425 117.004H183.689V63.6099C183.689 62.812 183.372 62.0467 182.808 61.4825C182.244 60.9182 181.478 60.6013 180.681 60.6013C179.883 60.6013 179.117 60.9182 178.553 61.4825C177.989 62.0467 177.672 62.812 177.672 63.6099V120.032C177.671 120.428 177.748 120.819 177.899 121.185C178.05 121.55 178.272 121.882 178.551 122.162C178.831 122.441 179.163 122.663 179.528 122.814C179.894 122.965 180.285 123.042 180.681 123.041H208.439C209.236 123.041 210.002 122.724 210.566 122.16C211.13 121.596 211.447 120.83 211.447 120.032C211.447 119.235 211.13 118.469 210.566 117.905C210.002 117.341 209.236 117.024 208.439 117.024L208.425 117.004Z" fill="#DADADA"/>
<path d="M127.304 70.2959H155.035V61.3301H127.304C122.894 61.3354 118.667 63.0897 115.548 66.2081C112.43 69.3265 110.676 73.5545 110.671 77.9647V80.0306C110.676 84.4408 112.43 88.6688 115.548 91.7872C118.667 94.9056 122.894 96.6599 127.304 96.6652H129.31H138.388C140.418 96.6723 142.363 97.4818 143.798 98.9172C145.233 100.353 146.043 102.297 146.05 104.327V106.4C146.046 108.432 145.239 110.38 143.803 111.819C142.367 113.257 140.421 114.068 138.388 114.075H110.671V123.021H138.388C142.797 123.016 147.023 121.262 150.139 118.145C153.256 115.028 155.01 110.802 155.015 106.393V104.321C155.005 99.9157 153.249 95.6946 150.132 92.5817C147.016 89.4689 142.793 87.7181 138.388 87.7128H136.383H127.304C125.275 87.6986 123.335 86.8833 121.905 85.4443C120.474 84.0053 119.671 82.0594 119.669 80.0306V77.9647C119.674 75.9382 120.479 73.9957 121.909 72.5596C123.339 71.1235 125.278 70.31 127.304 70.2959Z" fill="white"/>
<path d="M67.4359 78.5397V77.9647C67.4412 75.9336 68.2498 73.9871 69.6853 72.5502C71.1208 71.1134 73.0664 70.303 75.0974 70.2959H102.829V61.3301H75.0974C70.6882 61.3354 66.4612 63.0899 63.3441 66.2085C60.2269 69.3271 58.4742 73.5551 58.4707 77.9647V123.021H67.4292V96.6719H93.8701V87.7061H67.4292V78.5397H67.4359Z" fill="white"/>
</svg>
